# xmcd
#
# Track frame offsets: 
#        150
#        18632
#        38015
#        57144
#        76802
#        103357
#        121815
#        139887
#        154605
#        178770
#        198017
#        217120
#
# Disc length: 3185 seconds
#
# Revision: 0
# Processed by: cddbd v1.5.2PL0 Copyright (c) Steve Scherf et al.
# Submitted via: ExactAudioCopy v0.95a4
#
DISCID=a00c6f0c
DTITLE=Jim Byrnes - Long Hot Summer Days
DYEAR=2017
DGENRE=Blues
TTITLE0=Step By Step
TTITLE1=The Shape I'm In
TTITLE2=Ain't No Love In The Heart Of The City
TTITLE3=There Is Something On Your Mind
TTITLE4=Everybody Knows
TTITLE5=Deep Blue Sea
TTITLE6=Weak Brain, Narrow Mind
TTITLE7=Ninety Nine And A Half (Won't Do)
TTITLE8=Something Inside Of Me
TTITLE9=Anywhere The Wind Blows
TTITLE10=Out Of Left Field
TTITLE11=Long Hot Summer Days
EXTD=
EXTT0=
EXTT1=
EXTT2=
EXTT3=
EXTT4=
EXTT5=
EXTT6=
EXTT7=
EXTT8=
EXTT9=
EXTT10=
EXTT11=
PLAYORDER=
